:FULLY-SPECIFIED
:DEGREES
711
root -0.376697 15.7736 -1.88129 1986.18 -82.1399 -1982.33
lowerback 4.90826 3.40237 -5.14593
upperback -2.41158 4.12835 -0.656908
thorax -5.58525 2.20639 1.783
lowerneck -19.2622 -1.45797 1.15723
upperneck 26.4566 -2.87991 0.204746
head 11.8639 -1.27699 -0.599454
rclavicle 7.95139e-016 -4.77083e-015
rhumerus -19.9661 2.16956 -93.04
rradius 36.2473
rwrist -3.34281
rhand -32.8415 -16.3912
rfingers 7.12502
rthumb -6.06122 -46.2845
lclavicle 7.95139e-016 -4.77083e-015
lhumerus -35.3625 1.36771 89.5769
lradius 17.0587
lwrist -3.77144
lhand -30.1086 15.3211
lfingers 7.12502
lthumb -3.42237 45.2733
rfemur -3.03146 -0.38139 18.8469
rtibia 45.0463
rfoot 5.57917 -4.63111
rtoes -21.5092
lfemur -21.7809 -4.15606 -22.1861
ltibia 25.196
lfoot -6.15009 10.2255
ltoes -5.56717
712
root -0.380196 15.7748 -1.85126 1989.61 -81.8413 -1986.07
lowerback 5.17936 3.41735 -5.59018
upperback -2.30036 4.09288 -0.78098
thorax -5.64532 2.19977 1.89159
lowerneck -19.2306 -1.38737 1.21175
upperneck 26.2649 -2.72591 0.0122463
head 11.7795 -1.22732 -0.653095
rclavicle 1.90833e-014 -4.37326e-015
rhumerus -20.6136 1.2732 -92.9711
rradius 35.1185
rwrist -2.53826
rhand -32.6968 -16.4924
rfingers 7.12502
rthumb -5.9215 -46.3897
lclavicle 1.90833e-014 -4.37326e-015
lhumerus -34.6621 1.11624 89.6292
lradius 17.1911
lwrist -3.43031
lhand -30.2066 15.2925
lfingers 7.12502
lthumb -3.517 45.2432
rfemur -4.79876 -0.59943 17.9654
rtibia 48.455
rfoot 7.28424 -5.73204
rtoes -18.8155
lfemur -20.5661 -4.31961 -23.0643
ltibia 24.7612
lfoot -6.2372 10.6405
ltoes -5.71951
713
root -0.385266 15.7743 -1.82601 1992.38 -81.5269 -1989.19
lowerback 5.43975 3.42096 -6.00093
upperback -2.16729 4.04462 -0.889356
thorax -5.67331 2.18475 2.00106
lowerneck -19.2646 -1.30921 1.21618
upperneck 26.1423 -2.58028 -0.0785449
head 11.7381 -1.17238 -0.663486
rclavicle -6.40087e-014 4.37326e-015
rhumerus -21.3248 1.15393 -93.1656
rradius 34.2708
rwrist -4.27417
rhand -33.7927 -16.0648
rfingers 7.12502
rthumb -6.97944 -45.9297
lclavicle -6.40087e-014 4.37326e-015
lhumerus -33.9713 0.969855 89.6087
lradius 17.3394
lwrist -3.40675
lhand -30.317 15.3495
lfingers 7.12502
lthumb -3.62361 45.2985
rfemur -6.46438 -0.821337 17.2233
rtibia 51.7384
rfoot 6.83129 -8.02186
rtoes -21.9669
lfemur -19.2656 -4.33359 -23.8794
ltibia 24.2634
lfoot -6.54092 10.8842
ltoes -5.62441
714
root -0.38569 15.7661 -1.80403 1996.19 -81.2351 -1993.38
lowerback 5.78231 3.39864 -6.61745
upperback -2.05982 3.93071 -1.04343
thorax -5.78127 2.14454 2.17873
lowerneck -19.2331 -1.21917 1.24203
upperneck 26.0487 -2.41729 -0.204524
head 11.6945 -1.11324 -0.687652
rclavicle -7.49418e-014 2.06736e-014
rhumerus -21.8853 0.535329 -93.1222
rradius 32.9927
rwrist -3.64216
rhand -33.5873 -16.661
rfingers 7.12502
rthumb -6.78123 -46.5324
lclavicle -7.49418e-014 2.06736e-014
lhumerus -33.305 0.758726 89.581
lradius 17.5172
lwrist -3.27357
lhand -30.37 15.3376
lfingers 7.12502
lthumb -3.67478 45.2857
rfemur -8.06495 -1.23698 16.3427
rtibia 54.9138
rfoot 5.40481 -10.9471
rtoes -23.9329
lfemur -17.897 -4.21274 -24.8992
ltibia 23.6857
lfoot -6.8338 10.9137
ltoes -5.46532
715
root -0.387174 15.768 -1.78668 1999.13 -80.9524 -1996.65
lowerback 6.05779 3.35744 -7.20787
upperback -1.98265 3.79806 -1.12973
thorax -5.88241 2.09666 2.41836
lowerneck -19.1335 -1.11198 1.21844
upperneck 25.9273 -2.23529 -0.256286
head 11.629 -1.04143 -0.672175
rclavicle -3.05134e-014 2.38542e-015
rhumerus -22.5239 -0.0295001 -93.015
rradius 31.7779
rwrist -3.03463
rhand -33.2589 -16.7329
rfingers 7.12502
rthumb -6.46418 -46.6142
lclavicle -3.05134e-014 2.38542e-015
lhumerus -32.7472 0.301122 89.7032
lradius 17.8684
lwrist -2.8545
lhand -30.5292 15.6068
lfingers 7.12502
lthumb -3.82847 45.5521
rfemur -9.60517 -1.7633 15.657
rtibia 57.7312
rfoot 3.3204 -13.5682
rtoes -22.9608
lfemur -16.7045 -3.93606 -25.7642
ltibia 23.1564
lfoot -7.15703 10.8358
ltoes -5.56965
716
root -0.38555 15.7644 -1.77248 2000.65 -80.8203 -1998.51
lowerback 6.36709 3.28451 -7.56927
upperback -1.88951 3.64422 -1.13017
thorax -5.97063 2.03264 2.62375
lowerneck -19.1275 -1.02645 1.14947
upperneck 25.905 -2.07264 -0.315212
head 11.6205 -0.983045 -0.656967
rclavicle 1.61513e-014 -6.75868e-015
rhumerus -23.0212 -0.679186 -92.8487
rradius 30.165
rwrist -2.01972
rhand -33.1286 -16.3309
rfingers 7.12502
rthumb -6.33833 -46.216
lclavicle 1.61513e-014 -6.75868e-015
lhumerus -32.1007 -0.0720818 89.7807
lradius 18.1523
lwrist -2.45147
lhand -30.6133 15.6051
lfingers 7.12502
lthumb -3.90971 45.549
rfemur -11.1194 -2.21557 15.3195
rtibia 60.1986
rfoot 1.34688 -15.8547
rtoes -19.337
lfemur -15.4153 -3.65778 -26.3571
ltibia 22.6113
lfoot -7.46738 10.6737
ltoes -5.99968
717
root -0.385049 15.7691 -1.75888 2002.08 -80.7503 -2000.13
lowerback 6.4879 3.17347 -7.86582
upperback -1.80898 3.4611 -1.13192
thorax -5.95469 1.94969 2.80669
lowerneck -19.1788 -0.933473 1.17969
upperneck 25.9161 -1.90994 -0.453087
head 11.6342 -0.924666 -0.688591
rclavicle -5.37961e-015 -9.54166e-015
rhumerus -23.695 -0.952105 -92.7261
rradius 29.0631
rwrist -1.4789
rhand -33.0213 -16.5933
rfingers 7.12502
rthumb -6.23478 -46.4816
lclavicle -5.37961e-015 -9.54166e-015
lhumerus -31.4594 -0.689382 89.9381
lradius 18.5151
lwrist -1.84344
lhand -30.9192 15.5226
lfingers 7.12502
lthumb -4.20516 45.4609
rfemur -12.6686 -2.62598 15.0649
rtibia 62.1698
rfoot -0.0667236 -17.7949
rtoes -15.9172
lfemur -14.3907 -3.61035 -26.8453
ltibia 22.2065
lfoot -7.87329 10.5932
ltoes -5.87242
718
root -0.384915 15.7701 -1.74426 2002.33 -80.8363 -2000.54
lowerback 6.59003 3.04364 -7.84108
upperback -1.7447 3.28554 -1.1057
thorax -5.92475 1.86065 2.84091
lowerneck -19.1284 -0.857065 1.17368
upperneck 25.8785 -1.78963 -0.482167
head 11.6107 -0.875607 -0.678976
rclavicle 6.58971e-014 -2.98177e-014
rhumerus -24.2806 -1.55047 -92.5012
rradius 27.721
rwrist -0.506063
rhand -32.8217 -16.9082
rfingers 7.12502
rthumb -6.04206 -46.802
lclavicle 6.58971e-014 -2.98177e-014
lhumerus -30.7826 -1.12409 89.9416
lradius 18.7732
lwrist -1.53802
lhand -31.0876 15.3537
lfingers 7.12502
lthumb -4.36775 45.2886
rfemur -14.0933 -3.04144 15.0947
rtibia 63.7473
rfoot -1.47136 -19.2154
rtoes -13.2918
lfemur -13.3604 -3.66363 -27.108
ltibia 21.8269
lfoot -8.21382 10.6744
ltoes -6.45499
719
root -0.384765 15.7742 -1.73095 2001.6 -80.9328 -1999.93
lowerback 6.63272 2.91828 -7.71407
upperback -1.69646 3.13697 -0.994833
thorax -5.87933 1.78412 2.90596
lowerneck -19.0835 -0.770452 1.11354
upperneck 25.8639 -1.63933 -0.50805
head 11.5979 -0.818085 -0.654821
rclavicle -6.4605e-014 3.97569e-016
rhumerus -24.8708 -2.5981 -92.0477
rradius 26.2343
rwrist 1.12606
rhand -32.5273 -16.492
rfingers 7.12502
rthumb -5.75784 -46.3937
lclavicle -6.4605e-014 3.97569e-016
lhumerus -30.1099 -1.51617 89.9806
lradius 19.0436
lwrist -1.32609
lhand -31.2326 15.2732
lfingers 7.12502
lthumb -4.50777 45.2053
rfemur -15.4254 -3.19414 15.3573
rtibia 64.9148
rfoot -2.86073 -20.3878
rtoes -11.0463
lfemur -12.4391 -3.79774 -27.1866
ltibia 21.5267
lfoot -8.62358 10.8612
ltoes -6.64006
720
root -0.385193 15.7808 -1.71766 2002.13 -81.1774 -2000.6
lowerback 6.65854 2.73699 -7.69876
upperback -1.59729 2.90528 -0.912551
thorax -5.76596 1.66604 3.0161
lowerneck -19.0817 -0.69646 1.07677
upperneck 25.8258 -1.49526 -0.593269
head 11.5837 -0.767913 -0.657493
rclavicle -5.76476e-015 -3.97569e-015
rhumerus -25.3773 -3.61123 -91.523
rradius 24.7557
rwrist 2.56464
rhand -32.437 -16.4406
rfingers 7.12502
rthumb -5.67062 -46.3447
lclavicle -5.76476e-015 -3.97569e-015
lhumerus -29.3647 -2.06255 90.0839
lradius 19.3775
lwrist -0.917753
lhand -31.4536 15.4155
lfingers 7.12502
lthumb -4.72116 45.3429
rfemur -16.5858 -3.4854 15.474
rtibia 65.7753
rfoot -4.38475 -21.1863
rtoes -10.3606
lfemur -11.5514 -3.96677 -27.4028
ltibia 21.2706
lfoot -9.03564 10.8486
ltoes -6.53556
